<svg width="24" height="24" viewBox="0 0 24 24" fill="none" xmlns="http://www.w3.org/2000/svg">
<g id="award-49 2" clip-path="url(#clip0_1570_3861)">
<g id="Group">
<path id="Vector" d="M11.25 21.75H2.25C1.85218 21.75 1.47064 21.592 1.18934 21.3107C0.908035 21.0294 0.75 20.6478 0.75 20.25V2.25C0.75 1.85218 0.908035 1.47064 1.18934 1.18934C1.47064 0.908035 1.85218 0.75 2.25 0.75H17.25C17.6478 0.75 18.0294 0.908035 18.3107 1.18934C18.592 1.47064 18.75 1.85218 18.75 2.25V8.25" stroke="black" stroke-linecap="round" stroke-linejoin="round"/>
<path id="Vector_2" d="M18.75 17.25C21.2353 17.25 23.25 15.2353 23.25 12.75C23.25 10.2647 21.2353 8.25 18.75 8.25C16.2647 8.25 14.25 10.2647 14.25 12.75C14.25 15.2353 16.2647 17.25 18.75 17.25Z" stroke="black" stroke-linecap="round" stroke-linejoin="round"/>
<path id="Vector_3" d="M21.75 16.104V23.25L18.75 21.75L15.75 23.25V16.104" stroke="black" stroke-linecap="round" stroke-linejoin="round"/>
<path id="Vector_4" d="M5.25 6.75H12.75" stroke="black" stroke-linecap="round" stroke-linejoin="round"/>
<path id="Vector_5" d="M5.25 11.25H9.75" stroke="black" stroke-linecap="round" stroke-linejoin="round"/>
<path id="Vector_6" d="M5.25 15.75H9.75" stroke="black" stroke-linecap="round" stroke-linejoin="round"/>
</g>
</g>
<defs>
<clipPath id="clip0_1570_3861">
<rect width="24" height="24" fill="white"/>
</clipPath>
</defs>
</svg>
