<svg width="106" height="32" viewBox="0 0 106 32" fill="none" xmlns="http://www.w3.org/2000/svg">
<g id="&#226;&#156;&#133; icon_logo_black">
<g id="&#226;&#156;&#133; icon_logo_black_2">
<g id="logo">
<g id="Group">
<path id="Vector" d="M22.0423 12.8535V6.78225V6.28999L21.6047 6.07121L11.0485 0L0.437565 6.07121L0 6.28999V6.78225V24.9412L10.6109 31.0124L11.0485 31.2312L11.4861 31.0124L22.097 24.9412V17.9401L11.0485 24.2301L6.1806 21.4407V16.354L11.4861 19.3622V12.3612L6.61816 9.57172L11.0485 7.05573L15.9164 9.8452V16.4087L22.0423 12.8535ZM21.1672 7.27451V12.3612L16.7368 14.8772V9.8452L20.0186 7.98555L21.1672 7.27451ZM21.1672 24.4489L11.4314 30.0279V24.9412L21.1672 19.3622V24.4489ZM10.6109 12.8535V17.9401L5.30547 14.9319V21.9876L10.6109 24.9959V30.0826L0.875129 24.4489V7.27451L1.91434 7.87616L5.74303 10.064L10.6109 12.8535ZM5.74303 9.07946L1.31269 6.56347L11.0485 0.98452L20.7296 6.56347L19.6904 7.16512L16.2993 9.07946L10.9938 6.07121L5.74303 9.07946Z" fill="#00030A"/>
</g>
<g id="Group_2">
<g id="Group_3">
<path id="Vector_2" d="M38.1222 19.6905C37.6846 21.0579 36.9736 22.0424 36.0984 22.8628C36.9736 23.3551 38.1222 23.6832 39.4349 23.8473C39.2161 24.1208 38.8879 24.5584 38.7238 24.8865C37.2471 24.6678 36.0437 24.2302 35.0592 23.5738C34.02 24.2302 32.8167 24.6131 31.3399 24.9412C31.2305 24.6678 30.9024 24.1208 30.7383 23.8473C32.1057 23.6285 33.2543 23.3004 34.1294 22.8081C33.3637 21.9877 32.8167 21.0032 32.3245 19.6905L33.3637 19.417C33.7465 20.5656 34.3482 21.4407 35.1686 22.1518C35.9891 21.4407 36.5907 20.5656 36.9736 19.3623L38.1222 19.6905ZM32.9808 18.159H31.0118V17.0651H32.9808V16.1353H34.0747V17.0651H36.1531V16.1353H37.2471V17.0651H39.2708V18.159H37.2471V19.1982H36.1531V18.159H34.0747V19.1982H32.9808V18.159Z" fill="#00030A"/>
<path id="Vector_3" d="M47.311 18.9247H49.0066V19.9639H47.311V20.2921C47.8033 20.675 48.6784 21.4954 48.9519 21.7142L48.2955 22.644C48.022 22.4252 47.6939 21.9877 47.311 21.6595V24.8865H46.1624V21.8236C45.7248 22.644 45.2873 23.2457 44.7403 23.7379L44.1934 22.644C44.8497 21.9877 45.5607 20.9485 45.9983 19.9639H44.4121V18.9247H46.1624V17.7761C45.6154 17.8855 45.1232 17.9402 44.6309 18.0496L44.5762 17.1198C45.9436 16.901 47.2016 16.6275 48.0767 16.1899L48.8425 17.0104C48.4596 17.2292 47.858 17.3932 47.311 17.5573V18.9247ZM50.6474 22.5346H49.5535V17.2839H50.6474V22.5346ZM52.6165 16.2993V23.6285C52.6165 24.2849 52.1789 24.8865 51.4679 24.8865C51.1397 24.8865 50.6474 24.8865 50.3193 24.8865C50.3193 24.8865 50.2646 24.6131 50.2099 24.2849C50.1005 23.9567 49.9911 23.7379 49.9911 23.7379C49.9911 23.7379 51.0303 23.7379 51.1944 23.7379C51.3585 23.7379 51.4679 23.6832 51.4679 23.4645V16.2993H52.6165Z" fill="#00030A"/>
<path id="Vector_4" d="M73.9478 21.8236C73.7837 21.5501 73.5102 21.1126 73.182 20.7297V24.8865H72.0881V21.386C71.8146 22.1518 71.4865 22.7534 71.1036 23.2457C70.9942 22.9175 70.7207 22.4799 70.5566 22.2065C71.1583 21.386 71.7053 20.0733 71.9787 18.9247H70.7207V17.8855H72.0881V16.1353H73.182V17.8855H74.2759V18.9247H73.182V19.1435C73.5102 19.4717 74.3306 20.4562 74.4947 20.675L73.9478 21.8236ZM78.4875 23.7926C78.5969 23.7926 78.5969 23.7379 78.5969 23.5738C78.5969 23.4098 78.5969 22.9175 78.5969 22.3705C78.9251 22.5346 79.1438 22.5893 79.4173 22.644C79.4173 22.9175 79.4173 23.8473 79.4173 24.2302C79.4173 24.5584 79.1438 24.8318 78.761 24.8318H77.7218C77.503 24.8318 77.0654 24.7225 77.0654 23.9567V17.7761H75.8621V19.7452C75.8621 21.3313 75.6433 23.5738 74.2759 24.9412C74.1119 24.7225 73.6196 24.3396 73.4008 24.1755C74.6588 22.9722 74.7682 21.1125 74.7682 19.6905V16.6822H78.214V23.4098C78.214 23.6285 78.214 23.7379 78.3234 23.7379H78.4875V23.7926Z" fill="#00030A"/>
<path id="Vector_5" d="M90.4111 21.0031C91.0675 21.4407 91.8879 21.7688 92.763 21.9876C92.5443 22.2064 92.2161 22.5893 92.052 22.8628C91.9426 22.8081 91.8332 22.8081 91.7785 22.7534V24.8318H90.6846V24.6677H89.5907V24.8865H88.5515V21.9329H90.1377C89.7001 21.6595 89.3172 21.3313 88.989 20.9484H87.3482C87.02 21.2766 86.6371 21.6048 86.1996 21.9329H87.9498V24.8318H86.8559V24.6677H85.8714V24.8865H84.7775V22.6987C84.6681 22.7534 84.504 22.8081 84.3946 22.8628C84.2852 22.5893 84.0118 22.2064 83.793 21.9876C84.6134 21.7142 85.2698 21.3313 85.762 20.9484H83.9571V19.9639H86.7465C86.9653 19.6904 87.1294 19.4716 87.2388 19.1982H84.5587V16.4634H87.731V19.1435L88.4421 19.2529C88.3327 19.5263 88.1686 19.7451 88.0045 20.0186H89.9736L89.2625 19.4716L89.4813 19.2529H88.4968V16.5181H91.7785V19.2529H90.3564L91.0675 19.7998L90.8487 20.0186H92.4349V21.0031H90.4111ZM86.7465 17.5026H85.5979V18.323H86.7465V17.5026ZM86.8012 22.9175H85.8167V23.7379H86.8012V22.9175ZM90.6299 23.7379V22.9175H89.536V23.7379H90.6299ZM89.5907 18.323H90.794V17.5026H89.5907V18.323Z" fill="#00030A"/>
<path id="Vector_6" d="M102.061 16.1899C102.061 16.5728 102.007 17.0651 102.007 17.6667C102.116 18.9247 102.718 22.4799 105.999 23.902C105.671 24.1755 105.343 24.5584 105.179 24.8865C103.1 23.902 102.061 22.0424 101.514 20.4562C101.022 22.0971 100.038 23.7926 98.0685 24.9412C97.8497 24.6678 97.5215 24.2849 97.1387 24.0114C100.967 21.9877 100.749 17.7761 100.803 16.1899H102.061Z" fill="#00030A"/>
<g id="Group_4">
<path id="Vector_7" d="M60.0004 20.7844V19.0888H60.7114V18.0496H60.0004V16.2446H58.9612V18.0496H58.5236C58.5783 17.7214 58.5783 17.4479 58.633 17.1198C58.633 17.0104 58.633 16.9557 58.633 16.9557H57.7579C57.7032 18.1043 57.5391 19.3076 57.2656 20.0733L58.1408 20.2921C58.2501 19.9639 58.3048 19.5811 58.4142 19.1435H58.9065V21.1672C58.3595 21.3313 57.8126 21.4407 57.4297 21.5501L57.6485 22.6987L58.9065 22.3158V25.0506H59.9457V21.9877L60.8208 21.7142L60.6568 20.7297L60.0004 20.7844Z" fill="#00030A"/>
<path id="Vector_8" d="M66.0721 19.8546V18.8153H63.9936V17.9949H65.6345V16.9557H63.9936V16.1353H62.8997V16.9557H61.3136V17.9949H62.8997V18.8153H60.7666V19.8546H63.9936V20.675H60.9854V21.7142H62.0793L61.2589 22.2612L62.2981 23.6832L63.1732 23.1363L62.0793 21.7142H63.9936V23.6832C63.9936 23.7926 63.9389 23.8473 63.8296 23.8473C63.6655 23.8473 63.1732 23.8473 62.7356 23.8473C62.845 24.1755 63.0091 24.6131 63.0638 24.9412C63.2826 24.9412 63.8842 24.9412 64.103 24.9412C64.65 24.9412 65.0876 24.6678 65.0876 24.1208V21.7689H66.0174V20.7297H65.0876V19.9092H66.0721V19.8546Z" fill="#00030A"/>
</g>
</g>
<g id="Group_5">
<path id="Vector_9" d="M76.9011 6.34473H72.5802C72.1973 6.34473 71.8691 6.6729 71.8691 7.05577V11.3767C71.8691 11.7596 72.1973 12.0878 72.5802 12.0878H76.9011C77.284 12.0878 77.6122 11.7596 77.6122 11.3767V7.05577C77.5575 6.6729 77.284 6.34473 76.9011 6.34473ZM76.573 10.8298C76.573 10.9392 76.5183 10.9938 76.4089 10.9938H73.1271C73.0177 10.9938 72.9631 10.9392 72.9631 10.8298V7.49333C72.9631 7.38394 73.0177 7.32925 73.1271 7.32925H76.4089C76.5183 7.32925 76.573 7.38394 76.573 7.49333V10.8298Z" fill="#00030A"/>
<path id="Vector_10" d="M91.0125 6.34473H86.6915C86.3086 6.34473 85.9805 6.6729 85.9805 7.05577V11.3767C85.9805 11.7596 86.3086 12.0878 86.6915 12.0878H91.0125C91.3953 12.0878 91.7235 11.7596 91.7235 11.3767V7.05577C91.7235 6.6729 91.3953 6.34473 91.0125 6.34473ZM90.6843 10.8298C90.6843 10.9392 90.6296 10.9938 90.5202 10.9938H87.2385C87.1291 10.9938 87.0744 10.9392 87.0744 10.8298V7.49333C87.0744 7.38394 87.1291 7.32925 87.2385 7.32925H90.5202C90.6296 7.32925 90.6843 7.38394 90.6843 7.49333V10.8298Z" fill="#00030A"/>
<path id="Vector_11" d="M31.0117 12.0331H36.7001V11.1032H32.215V9.62646H36.2078V8.69664H32.215V7.32925H36.7001V6.34473H31.0117V12.0331Z" fill="#00030A"/>
<path id="Vector_12" d="M54.9141 12.0331H60.5477V11.1032H56.0627V9.62646H60.0554V8.69664H56.0627V7.32925H60.5477V6.34473H54.9141V12.0331Z" fill="#00030A"/>
<path id="Vector_13" d="M39.2707 6.34473H38.1221V12.0331H43.8104V11.1032H39.2707V6.34473Z" fill="#00030A"/>
<path id="Vector_14" d="M46.381 6.34473H45.2324V12.0331H46.381V6.34473Z" fill="#00030A"/>
<path id="Vector_15" d="M47.8037 7.32925H50.0462V12.0331H51.2495V7.32925H53.492V6.34473H47.8037V7.32925Z" fill="#00030A"/>
<path id="Vector_16" d="M93.1455 7.32925H95.388V12.0331H96.5913V7.32925H98.8338V6.34473H93.1455V7.32925Z" fill="#00030A"/>
<path id="Vector_17" d="M69.4626 9.68116C70.0642 9.68116 70.5018 9.1889 70.5018 8.64194V7.38394C70.5018 6.78229 70.0095 6.34473 69.4626 6.34473H68.2593C67.6576 6.34473 66.0168 6.34473 66.0168 6.34473H64.8682V12.0331H66.0168V9.68116C66.0168 9.68116 67.6029 9.68116 68.1499 9.68116L69.9549 12.0331H71.2128L69.4079 9.68116H69.4626ZM65.9621 7.32925H68.9703C69.1891 7.32925 69.3532 7.49333 69.3532 7.71212V8.36846C69.3532 8.58724 69.1891 8.75133 68.9703 8.75133H65.9621V7.32925Z" fill="#00030A"/>
<path id="Vector_18" d="M83.5739 6.34473H82.2065C81.6049 6.34473 80.1281 6.34473 80.1281 6.34473H78.9795V12.0331H80.1281C80.1281 12.0331 81.6596 12.0331 82.2065 12.0331H83.5739C84.1756 12.0331 84.6131 11.5408 84.6131 10.9938V10.064C84.6131 9.68116 84.3944 9.35298 84.1209 9.1889C84.3944 9.02481 84.6131 8.69664 84.6131 8.31377V7.43864C84.6131 6.83699 84.1756 6.34473 83.5739 6.34473ZM80.1281 7.32925H82.9723C83.1911 7.32925 83.3551 7.49333 83.3551 7.71212V8.36846C83.3551 8.58724 83.1911 8.75133 82.9723 8.75133H80.1281V7.32925ZM83.3551 10.7204C83.3551 10.9392 83.1911 11.1032 82.9723 11.1032H80.1281V9.73585H82.9723C83.1911 9.73585 83.3551 9.89994 83.3551 10.1187V10.7204Z" fill="#00030A"/>
<g id="Group_6">
<path id="Vector_19" d="M101.022 7.49334V8.47786C101.022 8.58725 101.131 8.69664 101.24 8.69664H104.303C105.288 8.69664 105.561 8.86073 105.561 9.95464V10.7204C105.561 11.8143 105.288 12.0878 104.303 12.0878H101.24C100.256 12.0878 99.9277 11.869 99.9277 10.8298V10.6657H101.022V10.8298C101.022 10.9392 101.131 11.1032 101.24 11.1032H104.303C104.413 11.1032 104.522 10.9939 104.522 10.8845V9.89995C104.522 9.79056 104.413 9.68116 104.303 9.68116H101.24C100.256 9.68116 99.9277 9.40769 99.9277 8.31377V7.65743C99.9277 6.56352 100.256 6.29004 101.24 6.29004H104.249C105.179 6.29004 105.507 6.50882 105.507 7.49334V7.65743H104.467V7.49334C104.467 7.38395 104.358 7.27456 104.249 7.27456H101.24C101.131 7.27456 101.022 7.38395 101.022 7.49334Z" fill="#00030A"/>
</g>
</g>
</g>
</g>
</g>
</g>
</svg>
