<svg width="247" height="348" viewBox="0 0 247 348" fill="none" xmlns="http://www.w3.org/2000/svg">
<path d="M246.389 143.676V75.8121V70.3094L241.498 67.8639L123.5 0L4.89109 67.8639L0 70.3094V75.8121V278.792L118.609 346.656L123.5 349.101L128.391 346.656L247 278.792V200.535L123.5 270.844L69.0866 239.663V182.804L128.391 216.431V138.173L73.9776 106.993L123.5 78.8685L177.913 110.049V183.415L246.389 143.676ZM236.606 81.3143V138.173L187.084 166.297V110.049L223.767 89.2623L236.606 81.3143ZM236.606 273.29L127.78 335.651V278.792L236.606 216.431V273.29ZM118.609 143.676V200.535L59.3045 166.908V245.777L118.609 279.403V336.262L9.78215 273.29V81.3143L21.3985 88.0397L64.1955 112.495L118.609 143.676ZM64.1955 101.49L14.6733 73.3663L123.5 11.0049L231.715 73.3663L220.099 80.0918L182.193 101.49L122.889 67.8639L64.1955 101.49Z" fill="#F5F5F5"/>
</svg>
