<svg width="98" height="98" viewBox="0 0 98 98" fill="none" xmlns="http://www.w3.org/2000/svg">
<path opacity="0.3" d="M97.2222 48.6111C97.2222 21.7639 75.4583 0 48.6111 0C21.7639 0 0 21.7639 0 48.6111C0 75.4583 21.7639 97.2222 48.6111 97.2222C75.4583 97.2222 97.2222 75.4583 97.2222 48.6111Z" fill="white"/>
<path d="M48.5 81C39.8805 81 31.614 77.5759 25.519 71.481C19.4241 65.386 16 57.1195 16 48.5C16 39.8805 19.4241 31.614 25.519 25.519C31.614 19.4241 39.8805 16 48.5 16C57.1195 16 65.386 19.4241 71.481 25.519C77.5759 31.614 81 39.8805 81 48.5C81 57.1195 77.5759 65.386 71.481 71.481C65.386 77.5759 57.1195 81 48.5 81V81ZM36.3125 36.3125V60.6875H44.4375V36.3125H36.3125ZM52.5625 36.3125V60.6875H60.6875V36.3125H52.5625Z" fill="white"/>
</svg>
