<svg width="100" height="100" viewBox="0 0 100 100" fill="none" xmlns="http://www.w3.org/2000/svg">
<g id="Group 273">
<g id="Group 273_2">
<g id="Frame" opacity="0.3">
<rect x="1.38889" y="1.38889" width="97.2222" height="97.2222" rx="48.6111" fill="white"/>
<rect x="1.38889" y="1.38889" width="97.2222" height="97.2222" rx="48.6111" stroke="white" stroke-width="2.77778"/>
</g>
<g id="Frame_2">
<path id="Subtract" fill-rule="evenodd" clip-rule="evenodd" d="M50.0004 81.9446C67.6428 81.9446 81.9448 67.6425 81.9448 50.0001C81.9448 32.3577 67.6428 18.0557 50.0004 18.0557C32.3579 18.0557 18.0559 32.3577 18.0559 50.0001C18.0559 67.6425 32.3579 81.9446 50.0004 81.9446ZM42.6282 38.6134V49.9631V61.3127C42.6282 62.2585 43.652 62.8497 44.4711 62.3768L54.3002 56.7019L64.1292 51.0271C64.9483 50.5542 64.9483 49.372 64.1292 48.8991L54.3002 43.2242L44.4711 37.5494C43.652 37.0765 42.6282 37.6676 42.6282 38.6134Z" fill="white"/>
</g>
</g>
</g>
</svg>
