<svg width="98" height="98" viewBox="0 0 98 98" fill="none" xmlns="http://www.w3.org/2000/svg">
<path opacity="0.3" d="M97.2222 48.6111C97.2222 21.7639 75.4583 0 48.6111 0C21.7639 0 0 21.7639 0 48.6111C0 75.4583 21.7639 97.2222 48.6111 97.2222C75.4583 97.2222 97.2222 75.4583 97.2222 48.6111Z" fill="white"/>
<path fill-rule="evenodd" clip-rule="evenodd" d="M48.5 81C66.4493 81 81 66.4492 81 48.4999C81 30.5507 66.4493 16 48.5 16C30.5507 16 16 30.5507 16 48.4999C16 66.4492 30.5507 81 48.5 81ZM40.9996 36.9152V48.4623V60.0093C40.9996 60.9715 42.0412 61.573 42.8746 61.0919L52.8746 55.3183L62.8746 49.5448C63.7079 49.0637 63.7079 47.8609 62.8746 47.3798L52.8746 41.6062L42.8746 35.8327C42.0412 35.3516 40.9996 35.953 40.9996 36.9152Z" fill="white"/>
</svg>
