<svg width="40" height="40" viewBox="0 0 40 40" fill="none" xmlns="http://www.w3.org/2000/svg">
<g id="ic_anli_lingshou">
<g id="Group">
<path id="Vector" d="M6.25 23.75V37.5H33.75V23.75" stroke="white" stroke-width="2" stroke-linecap="round" stroke-linejoin="round"/>
<path id="Vector_2" d="M38.7163 13.75C38.5625 15.1252 37.9072 16.3955 36.8757 17.318C35.8442 18.2404 34.5088 18.7503 33.125 18.75C32.2848 18.737 31.4576 18.54 30.7018 18.1729C29.9459 17.8057 29.2797 17.2774 28.75 16.625C28.2278 17.2857 27.5631 17.8199 26.8055 18.1879C26.048 18.5558 25.2172 18.748 24.375 18.75C23.5344 18.7394 22.7064 18.5435 21.9502 18.1761C21.1939 17.8088 20.528 17.2792 20 16.625C19.472 17.2792 18.8061 17.8088 18.0498 18.1761C17.2936 18.5435 16.4657 18.7394 15.625 18.75C14.7828 18.748 13.952 18.5558 13.1945 18.1879C12.4369 17.8199 11.7722 17.2857 11.25 16.625C10.7164 17.2728 10.0493 17.798 9.2943 18.1647C8.53931 18.5314 7.71413 18.7311 6.875 18.75C5.49119 18.7503 4.15584 18.2404 3.12432 17.318C2.09281 16.3955 1.43751 15.1252 1.28375 13.75L8.75 2.5H31.25L38.7163 13.75Z" stroke="white" stroke-width="2" stroke-linecap="round" stroke-linejoin="round"/>
<path id="Vector_3" d="M16.25 37.5V27.5H23.75V37.5" stroke="white" stroke-width="2" stroke-linecap="round" stroke-linejoin="round"/>
</g>
</g>
</svg>
