<svg width="35" height="35" viewBox="0 0 35 35" fill="none" xmlns="http://www.w3.org/2000/svg">
<path fill-rule="evenodd" clip-rule="evenodd" d="M9.9166 17.5C9.49905 17.5 9.1665 17.8352 9.1665 18.246V29.25C9.1665 29.6642 9.50226 30 9.9165 30H24.9165C25.3307 30 25.6665 29.6642 25.6665 29.25V18.246C25.6665 17.8352 25.3339 17.5 24.9164 17.5H9.9166ZM6.6665 18.246C6.6665 16.4478 8.12495 15 9.9166 15H24.9164C26.7081 15 28.1665 16.4478 28.1665 18.246V29.25C28.1665 31.045 26.7115 32.5 24.9165 32.5H9.9165C8.12154 32.5 6.6665 31.045 6.6665 29.25V18.246Z" fill="url(#paint0_linear_3_5)"/>
<path fill-rule="evenodd" clip-rule="evenodd" d="M25.3661 0.366117C25.6005 0.131696 25.9185 0 26.25 0H32.9167C33.6071 0 34.1667 0.559644 34.1667 1.25C34.1667 1.94036 33.6071 2.5 32.9167 2.5H26.7678L23.0178 6.25L26.7678 10H32.9167C33.6071 10 34.1667 10.5596 34.1667 11.25C34.1667 11.9404 33.6071 12.5 32.9167 12.5H26.25C25.9185 12.5 25.6005 12.3683 25.3661 12.1339L20.3661 7.13388C19.878 6.64573 19.878 5.85427 20.3661 5.36612L25.3661 0.366117Z" fill="url(#paint1_linear_3_5)"/>
<path fill-rule="evenodd" clip-rule="evenodd" d="M0 6.2503C0 3.71902 2.05203 1.66699 4.58333 1.66699C7.11461 1.66699 9.1667 3.719 9.1667 6.2503C9.1667 8.78165 7.11464 10.8337 4.58333 10.8337C2.052 10.8337 0 8.78163 0 6.2503ZM4.58333 4.16699C3.43273 4.16699 2.5 5.09974 2.5 6.2503C2.5 7.40097 3.43276 8.3337 4.58333 8.3337C5.73392 8.3337 6.6667 7.40095 6.6667 6.2503C6.6667 5.09976 5.73395 4.16699 4.58333 4.16699Z" fill="url(#paint2_linear_3_5)"/>
<path fill-rule="evenodd" clip-rule="evenodd" d="M13.1719 30.6928C13.2979 30.7383 13.3721 30.75 13.4165 30.75C13.4609 30.75 13.5351 30.7383 13.6611 30.6928C13.7228 30.6705 13.7864 30.6442 13.8634 30.6115C13.8734 30.6072 13.8843 30.6026 13.8957 30.5977C13.9601 30.5702 14.0435 30.5345 14.1207 30.505C14.2086 30.4715 14.3501 30.4213 14.5119 30.397C14.6719 30.373 14.9564 30.3579 15.2541 30.5102C15.5772 30.6755 15.748 30.9497 15.8291 31.1794C15.9028 31.3884 15.9165 31.5943 15.9165 31.75C15.9165 33.1307 14.7972 34.25 13.4165 34.25C12.0358 34.25 10.9165 33.1307 10.9165 31.75C10.9165 31.5943 10.9302 31.3884 11.0039 31.1794C11.085 30.9497 11.2558 30.6755 11.5789 30.5102C11.8766 30.3579 12.1611 30.373 12.3211 30.397C12.4829 30.4213 12.6244 30.4715 12.7123 30.505C12.7895 30.5345 12.873 30.5702 12.9373 30.5977C12.9487 30.6026 12.9596 30.6072 12.9696 30.6115C13.0466 30.6442 13.1102 30.6705 13.1719 30.6928Z" fill="url(#paint3_linear_3_5)"/>
<path fill-rule="evenodd" clip-rule="evenodd" d="M21.1719 30.6928C21.2979 30.7383 21.3721 30.75 21.4165 30.75C21.4609 30.75 21.5351 30.7383 21.6611 30.6928C21.7228 30.6705 21.7864 30.6442 21.8634 30.6115C21.8734 30.6072 21.8843 30.6026 21.8957 30.5977C21.96 30.5702 22.0435 30.5345 22.1207 30.505C22.2086 30.4715 22.3501 30.4213 22.5119 30.397C22.6719 30.373 22.9564 30.3579 23.2541 30.5102C23.5772 30.6755 23.748 30.9497 23.8291 31.1794C23.9028 31.3884 23.9165 31.5943 23.9165 31.75C23.9165 33.1307 22.7972 34.25 21.4165 34.25C20.0358 34.25 18.9165 33.1307 18.9165 31.75C18.9165 31.5943 18.9302 31.3884 19.0039 31.1794C19.085 30.9497 19.2558 30.6755 19.5789 30.5102C19.8766 30.3579 20.1611 30.373 20.3211 30.397C20.4829 30.4213 20.6244 30.4715 20.7123 30.505C20.7895 30.5345 20.873 30.5702 20.9373 30.5977C20.9487 30.6026 20.9596 30.6072 20.9696 30.6115C21.0466 30.6442 21.1102 30.6705 21.1719 30.6928Z" fill="url(#paint4_linear_3_5)"/>
<path fill-rule="evenodd" clip-rule="evenodd" d="M6.6667 6.2503C6.6667 5.55994 7.22614 5 7.9165 5H21.2498C21.9402 5 22.4998 5.55964 22.4998 6.25C22.4998 6.94036 21.9402 7.5 21.2498 7.5H7.9165C7.22614 7.5 6.6667 6.94066 6.6667 6.2503Z" fill="url(#paint5_linear_3_5)"/>
<path fill-rule="evenodd" clip-rule="evenodd" d="M5.55022 8.54773C6.12226 8.16126 6.89929 8.31169 7.28577 8.88372L11.4523 15.0507C11.8387 15.6228 11.6883 16.3998 11.1163 16.7863C10.5442 17.1727 9.76721 17.0223 9.38073 16.4503L5.21423 10.2833C4.82776 9.71124 4.97819 8.93421 5.55022 8.54773Z" fill="url(#paint6_linear_3_5)"/>
<defs>
<linearGradient id="paint0_linear_3_5" x1="0" y1="17" x2="34" y2="17" gradientUnits="userSpaceOnUse">
<stop stop-color="#0083FF"/>
<stop offset="1" stop-color="#00D1FF"/>
</linearGradient>
<linearGradient id="paint1_linear_3_5" x1="0" y1="17" x2="34" y2="17" gradientUnits="userSpaceOnUse">
<stop stop-color="#0083FF"/>
<stop offset="1" stop-color="#00D1FF"/>
</linearGradient>
<linearGradient id="paint2_linear_3_5" x1="0" y1="17" x2="34" y2="17" gradientUnits="userSpaceOnUse">
<stop stop-color="#0083FF"/>
<stop offset="1" stop-color="#00D1FF"/>
</linearGradient>
<linearGradient id="paint3_linear_3_5" x1="0" y1="17" x2="34" y2="17" gradientUnits="userSpaceOnUse">
<stop stop-color="#0083FF"/>
<stop offset="1" stop-color="#00D1FF"/>
</linearGradient>
<linearGradient id="paint4_linear_3_5" x1="0" y1="17" x2="34" y2="17" gradientUnits="userSpaceOnUse">
<stop stop-color="#0083FF"/>
<stop offset="1" stop-color="#00D1FF"/>
</linearGradient>
<linearGradient id="paint5_linear_3_5" x1="0" y1="17" x2="34" y2="17" gradientUnits="userSpaceOnUse">
<stop stop-color="#0083FF"/>
<stop offset="1" stop-color="#00D1FF"/>
</linearGradient>
<linearGradient id="paint6_linear_3_5" x1="0" y1="17" x2="34" y2="17" gradientUnits="userSpaceOnUse">
<stop stop-color="#0083FF"/>
<stop offset="1" stop-color="#00D1FF"/>
</linearGradient>
</defs>
</svg>
