<svg width="40" height="38" viewBox="0 0 40 38" fill="none" xmlns="http://www.w3.org/2000/svg">
<path fill-rule="evenodd" clip-rule="evenodd" d="M3.75 28C4.30228 28 4.75 28.4477 4.75 29V35.5H35.25V29C35.25 28.4477 35.6977 28 36.25 28C36.8023 28 37.25 28.4477 37.25 29V36.5C37.25 37.0523 36.8023 37.5 36.25 37.5H3.75C3.19772 37.5 2.75 37.0523 2.75 36.5V29C2.75 28.4477 3.19772 28 3.75 28Z" fill="white"/>
<path fill-rule="evenodd" clip-rule="evenodd" d="M11.5 1.5C11.5 0.947715 11.9477 0.5 12.5 0.5H27.5C28.0523 0.5 28.5 0.947715 28.5 1.5V6.5C28.5 7.05228 28.0523 7.5 27.5 7.5C26.9477 7.5 26.5 7.05228 26.5 6.5V2.5H13.5V6.5C13.5 7.05228 13.0523 7.5 12.5 7.5C11.9477 7.5 11.5 7.05228 11.5 6.5V1.5Z" fill="white"/>
<path fill-rule="evenodd" clip-rule="evenodd" d="M0.25 6.5C0.25 5.94772 0.697715 5.5 1.25 5.5H38.75C39.3023 5.5 39.75 5.94772 39.75 6.5V29C39.75 29.5523 39.3023 30 38.75 30H1.25C0.697715 30 0.25 29.5523 0.25 29V6.5ZM2.25 7.5V28H37.75V7.5H2.25Z" fill="white"/>
<path fill-rule="evenodd" clip-rule="evenodd" d="M16.5 11.5C16.5 10.9477 16.9477 10.5 17.5 10.5H22.5C23.0523 10.5 23.5 10.9477 23.5 11.5V14.25H26.25C26.8023 14.25 27.25 14.6977 27.25 15.25V20.25C27.25 20.8023 26.8023 21.25 26.25 21.25H23.5V24C23.5 24.5523 23.0523 25 22.5 25H17.5C16.9477 25 16.5 24.5523 16.5 24V21.25H13.75C13.1977 21.25 12.75 20.8023 12.75 20.25V15.25C12.75 14.6977 13.1977 14.25 13.75 14.25H16.5V11.5ZM18.5 12.5V15.25C18.5 15.8023 18.0523 16.25 17.5 16.25H14.75V19.25H17.5C18.0523 19.25 18.5 19.6977 18.5 20.25V23H21.5V20.25C21.5 19.6977 21.9477 19.25 22.5 19.25H25.25V16.25H22.5C21.9477 16.25 21.5 15.8023 21.5 15.25V12.5H18.5Z" fill="white"/>
</svg>
