<svg width="36" height="40" viewBox="0 0 36 40" fill="none" xmlns="http://www.w3.org/2000/svg">
<path fill-rule="evenodd" clip-rule="evenodd" d="M0 8C0 7.44772 0.447715 7 1 7H7.8C8.35228 7 8.8 7.44772 8.8 8V19.9612L21.096 16.0373C21.4001 15.9403 21.7322 15.9942 21.9899 16.1825C22.2476 16.3708 22.4 16.6708 22.4 16.99V21.6351L34.5852 16.0801C34.8947 15.939 35.2548 15.9649 35.5409 16.1489C35.827 16.3329 36 16.6498 36 16.99V39C36 39.5523 35.5523 40 35 40H1C0.447715 40 0 39.5523 0 39V8ZM2 9V38H34V18.5449L21.8148 24.0999C21.5053 24.241 21.1452 24.2151 20.8591 24.0311C20.573 23.8471 20.4 23.5302 20.4 23.19V18.3588L8.10401 22.2827C7.79994 22.3797 7.46782 22.3258 7.21009 22.1375C6.95236 21.9492 6.8 21.6492 6.8 21.33V9H2Z" fill="white"/>
<path fill-rule="evenodd" clip-rule="evenodd" d="M7 27.334C7 26.7817 7.44772 26.334 8 26.334H14.6667C15.219 26.334 15.6667 26.7817 15.6667 27.334V34.0007C15.6667 34.553 15.219 35.0007 14.6667 35.0007H8C7.44772 35.0007 7 34.553 7 34.0007V27.334ZM9 28.334V33.0007H13.6667V28.334H9Z" fill="white"/>
<path fill-rule="evenodd" clip-rule="evenodd" d="M20.3333 27.334C20.3333 26.7817 20.781 26.334 21.3333 26.334H27.9999C28.5522 26.334 28.9999 26.7817 28.9999 27.334V34.0007C28.9999 34.553 28.5522 35.0007 27.9999 35.0007H21.3333C20.781 35.0007 20.3333 34.553 20.3333 34.0007V27.334ZM22.3333 28.334V33.0007H26.9999V28.334H22.3333Z" fill="white"/>
<path fill-rule="evenodd" clip-rule="evenodd" d="M12.0252 3.15823C12.0252 1.41402 13.4391 0 15.1834 0H31.8418C33.586 0 35 1.41399 35 3.15823C35 4.90246 33.586 6.31646 31.8418 6.31646H22.8825C22.7042 6.31646 22.5597 6.46102 22.5597 6.63924C22.5597 6.81747 22.7043 6.96203 22.8825 6.96203H23.0063C24.3575 6.96203 25.4528 8.05741 25.4528 9.40857V9.98101C25.4528 11.6484 24.1012 13 22.4338 13H13.019C11.3516 13 10 11.6484 10 9.98101C10 8.31368 11.3516 6.96203 13.019 6.96203H16.3313C16.5096 6.96203 16.6541 6.81752 16.6541 6.63924C16.6541 6.46097 16.5096 6.31646 16.3313 6.31646H15.1834C13.4391 6.31646 12.0252 4.90243 12.0252 3.15823ZM15.1834 2C14.5437 2 14.0252 2.51852 14.0252 3.15823C14.0252 3.79793 14.5437 4.31646 15.1834 4.31646H16.3313C17.6142 4.31646 18.6541 5.35641 18.6541 6.63924C18.6541 7.92206 17.6142 8.96203 16.3313 8.96203H13.019C12.4562 8.96203 12 9.41824 12 9.98101C12 10.5438 12.4562 11 13.019 11H22.4338C22.9966 11 23.4528 10.5438 23.4528 9.98101V9.40857C23.4528 9.16191 23.2529 8.96203 23.0063 8.96203H22.8825C21.5997 8.96203 20.5597 7.92211 20.5597 6.63924C20.5597 5.35636 21.5998 4.31646 22.8825 4.31646H31.8418C32.4814 4.31646 33 3.7979 33 3.15823C33 2.51855 32.4814 2 31.8418 2H15.1834Z" fill="white"/>
</svg>
