<svg width="40" height="38" viewBox="0 0 40 38" fill="none" xmlns="http://www.w3.org/2000/svg">
<path d="M6.25 22.75V36.5H33.75V22.75M16.25 36.5V26.5H23.75V36.5M38.7163 12.75C38.5625 14.1252 37.9072 15.3955 36.8757 16.318C35.8442 17.2404 34.5088 17.7503 33.125 17.75C32.2848 17.737 31.4576 17.54 30.7018 17.1729C29.9459 16.8057 29.2797 16.2774 28.75 15.625C28.2278 16.2857 27.5631 16.8199 26.8055 17.1879C26.048 17.5558 25.2172 17.748 24.375 17.75C23.5344 17.7394 22.7064 17.5435 21.9502 17.1761C21.1939 16.8088 20.528 16.2792 20 15.625C19.472 16.2792 18.8061 16.8088 18.0498 17.1761C17.2936 17.5435 16.4657 17.7394 15.625 17.75C14.7828 17.748 13.952 17.5558 13.1945 17.1879C12.4369 16.8199 11.7722 16.2857 11.25 15.625C10.7164 16.2728 10.0493 16.798 9.2943 17.1647C8.53931 17.5314 7.71413 17.7311 6.875 17.75C5.49119 17.7503 4.15584 17.2404 3.12432 16.318C2.09281 15.3955 1.43751 14.1252 1.28375 12.75L8.75 1.5H31.25L38.7163 12.75Z" stroke="url(#paint0_linear_3_20)" stroke-width="2" stroke-linecap="round" stroke-linejoin="round"/>
<defs>
<linearGradient id="paint0_linear_3_20" x1="0.999999" y1="19" x2="39" y2="19" gradientUnits="userSpaceOnUse">
<stop stop-color="#0083FF"/>
<stop offset="1" stop-color="#00D1FF"/>
</linearGradient>
</defs>
</svg>
