<svg width="337" height="348" viewBox="0 0 337 348" fill="none" xmlns="http://www.w3.org/2000/svg">
<g id="Frame 427320386">
<g id="Group" opacity="0.06">
<path id="Vector" d="M336.166 198.027V105.436V97.9282L329.493 94.5916L168.5 2L6.67327 94.5916L0 97.9282V105.436V382.376L161.827 474.968L168.5 478.304L175.173 474.968L337 382.376V275.604L168.5 371.532L94.2599 328.99V251.413L175.173 297.292V190.52L100.933 147.978L168.5 109.606L242.74 152.148V252.247L336.166 198.027ZM322.819 112.943V190.52L255.252 228.891V152.148L305.302 123.787L322.819 112.943ZM322.819 374.869L174.339 459.953V382.376L322.819 297.292V374.869ZM161.827 198.027V275.604L80.9134 229.725V337.332L161.827 383.21V460.787L13.3465 374.869V112.943L29.1955 122.119L87.5866 155.485L161.827 198.027ZM87.5866 140.47L20.0198 102.099L168.5 17.0148L316.146 102.099L300.297 111.275L248.579 140.47L167.666 94.5916L87.5866 140.47Z" fill="white"/>
</g>
</g>
</svg>
