<svg width="40" height="40" viewBox="0 0 40 40" fill="none" xmlns="http://www.w3.org/2000/svg">
<g id="Frame 427320584">
<g id="stock-2 1">
<g id="Group">
<path id="Vector" d="M6.55176 7H10.138V27.6208" stroke="#212121" stroke-miterlimit="10" stroke-linecap="round"/>
<path id="Vector_2" d="M10.1382 33.0001C11.6236 33.0001 12.8278 31.7959 12.8278 30.3104C12.8278 28.8249 11.6236 27.6207 10.1382 27.6207C8.65269 27.6207 7.44849 28.8249 7.44849 30.3104C7.44849 31.7959 8.65269 33.0001 10.1382 33.0001Z" stroke="#212121" stroke-miterlimit="10" stroke-linecap="square"/>
<path id="Vector_3" d="M33.4484 30.3104H12.8276" stroke="#212121" stroke-miterlimit="10" stroke-linecap="round"/>
<path id="Vector_4" d="M15.5173 14.6207V25.869C15.5173 26.3413 15.9002 26.7242 16.3726 26.7242H30.8001C31.2724 26.7242 31.6553 26.3413 31.6553 25.869V14.6207" stroke="#194A9B" stroke-width="0.7" stroke-miterlimit="10" stroke-linecap="square"/>
<path id="Vector_5" d="M32.5933 10.1379H14.5796C14.1073 10.1379 13.7244 10.5209 13.7244 10.9932V13.7654C13.7244 14.2378 14.1073 14.6207 14.5796 14.6207H32.5933C33.0657 14.6207 33.4486 14.2378 33.4486 13.7654V10.9932C33.4486 10.5209 33.0657 10.1379 32.5933 10.1379Z" stroke="#194A9B" stroke-width="0.7" stroke-miterlimit="10" stroke-linecap="square"/>
</g>
</g>
</g>
</svg>
