<svg width="40" height="40" viewBox="0 0 40 40" fill="none" xmlns="http://www.w3.org/2000/svg">
<g id="Frame 427320589">
<g id="night-table 1">
<g id="Group">
<path id="Vector" d="M35.04 16H4.96C4.42981 16 4 16.4298 4 16.96V31.04C4 31.5702 4.42981 32 4.96 32H35.04C35.5702 32 36 31.5702 36 31.04V16.96C36 16.4298 35.5702 16 35.04 16Z" stroke="#212121" stroke-miterlimit="10" stroke-linecap="square"/>
<path id="Vector_2" d="M24.2053 4.68415C24.0835 4.27808 23.7098 4 23.2858 4H16.7144C16.2904 4 15.9167 4.27808 15.7949 4.68415L13.9709 10.7641C13.7861 11.3801 14.2473 12 14.8904 12H25.1098C25.7529 12 26.2141 11.3801 26.0293 10.7641L24.2053 4.68415Z" stroke="#194A9B" stroke-width="0.8" stroke-miterlimit="10" stroke-linecap="square"/>
<path id="Vector_3" d="M20 12V15.1992" stroke="#194A9B" stroke-width="0.8" stroke-miterlimit="10" stroke-linecap="square"/>
<path id="Vector_4" d="M7.2002 32V34.6812C7.2002 35.4095 7.79065 36 8.51902 36V36C9.14768 36 9.68894 35.5563 9.81223 34.9398L10.4002 32" stroke="#212121" stroke-width="0.96" stroke-miterlimit="10"/>
<path id="Vector_5" d="M32.8001 32V34.6812C32.8001 35.4095 32.2096 36 31.4813 36V36C30.8526 36 30.3114 35.5563 30.1881 34.9398L29.6001 32" stroke="#212121" stroke-width="0.96" stroke-miterlimit="10"/>
<path id="Vector_6" d="M4 24H36" stroke="#212121" stroke-width="0.96" stroke-miterlimit="10"/>
<path id="Vector_7" d="M17.6001 28H22.4001" stroke="#212121" stroke-width="0.96" stroke-miterlimit="10" stroke-linecap="round"/>
<path id="Vector_8" d="M17.6001 20H22.4001" stroke="#212121" stroke-width="0.96" stroke-miterlimit="10" stroke-linecap="round"/>
</g>
</g>
</g>
</svg>
