<svg width="40" height="40" viewBox="0 0 40 40" fill="none" xmlns="http://www.w3.org/2000/svg">
<g id="Frame 427320593">
<g id="chemistry 1">
<g id="Group">
<path id="Vector" d="M16.4057 9.87952V17.7864L8.68794 29.1054C8.39341 29.5374 8.22228 30.0417 8.19299 30.5638C8.1637 31.0859 8.27735 31.6061 8.5217 32.0684C8.76606 32.5307 9.13187 32.9176 9.57976 33.1875C10.0277 33.4574 10.5407 33.6 11.0636 33.6H28.9352C29.4581 33.6 29.9711 33.4574 30.419 33.1875C30.8669 32.9176 31.2327 32.5307 31.4771 32.0684C31.7214 31.6061 31.8351 31.0859 31.8058 30.5638C31.7765 30.0417 31.6054 29.5374 31.3109 29.1054L23.5938 17.7864V9.87952" stroke="#212121" stroke-miterlimit="10" stroke-linecap="square"/>
<path id="Vector_2" d="M27.0434 5.56665H12.9548C12.4785 5.56665 12.0923 5.95283 12.0923 6.42922V9.01691C12.0923 9.49329 12.4785 9.87947 12.9548 9.87947H27.0434C27.5198 9.87947 27.906 9.49329 27.906 9.01691V6.42921C27.906 5.95283 27.5198 5.56665 27.0434 5.56665Z" stroke="#212121" stroke-miterlimit="10" stroke-linecap="square"/>
<path id="Vector_3" d="M16.4054 30.4436C17.5964 30.4436 18.5618 29.4781 18.5618 28.2871C18.5618 27.0962 17.5964 26.1307 16.4054 26.1307C15.2145 26.1307 14.249 27.0962 14.249 28.2871C14.249 29.4781 15.2145 30.4436 16.4054 30.4436Z" stroke="#194A9B" stroke-width="0.7" stroke-miterlimit="10" stroke-linecap="square"/>
<path id="Vector_4" d="M22.8746 26.8496C23.6686 26.8496 24.3122 26.2059 24.3122 25.412C24.3122 24.618 23.6686 23.9744 22.8746 23.9744C22.0807 23.9744 21.437 24.618 21.437 25.412C21.437 26.2059 22.0807 26.8496 22.8746 26.8496Z" stroke="#194A9B" stroke-width="0.7" stroke-miterlimit="10" stroke-linecap="square"/>
</g>
</g>
</g>
</svg>
