<svg width="40" height="40" viewBox="0 0 40 40" fill="none" xmlns="http://www.w3.org/2000/svg">
<g id="Frame 427320594">
<g id="store 1">
<g id="Group">
<path id="Vector" d="M30.6203 10.8275H9.37891" stroke="#212121" stroke-width="1.05" stroke-miterlimit="10" stroke-linecap="square"/>
<path id="Vector_2" d="M16.7109 22.8965H13.6333C13.1501 22.8965 12.7583 23.2882 12.7583 23.7715V26.8491C12.7583 27.3323 13.1501 27.7241 13.6333 27.7241H16.7109C17.1941 27.7241 17.5859 27.3323 17.5859 26.8491V23.7715C17.5859 23.2882 17.1941 22.8965 16.7109 22.8965Z" stroke="#194A9B" stroke-width="0.7" stroke-miterlimit="10" stroke-linecap="square"/>
<path id="Vector_3" d="M8.09961 19.2999V33.1249C8.09961 33.6082 8.49136 33.9999 8.97461 33.9999H21.1079C21.5912 33.9999 21.9829 33.6082 21.9829 33.1249V24.2909C21.9829 23.8077 22.3747 23.4159 22.8579 23.4159H27.0579C27.5412 23.4159 27.9329 23.8077 27.9329 24.2909V33.1249C27.9329 33.6082 28.3247 33.9999 28.8079 33.9999H31.0246C31.5079 33.9999 31.8996 33.6082 31.8996 33.1249V19.2999" stroke="#212121" stroke-width="1.05" stroke-miterlimit="10" stroke-linecap="square"/>
<path id="Vector_4" d="M30.8123 11.0673C30.6882 10.9121 30.6205 10.7193 30.6205 10.5207V6.875C30.6205 6.39175 30.2288 6 29.7455 6H10.2542C9.77091 6 9.37916 6.39175 9.37916 6.875V10.5207C9.37916 10.7193 9.31154 10.9121 9.18742 11.0673L5.70883 15.4155C5.58471 15.5706 5.51302 15.764 5.53082 15.9619C5.68579 17.6845 7.13344 19.0345 8.8964 19.0345C9.57526 19.0345 10.2063 18.8336 10.7351 18.4887C11.2096 18.1791 11.8936 18.1791 12.368 18.4887C12.8968 18.8336 13.5279 19.0345 14.2067 19.0345C14.9142 19.0345 15.5699 18.8164 16.1118 18.4441C16.6563 18.07 17.5503 18.07 18.0948 18.4441C18.6367 18.8164 19.2924 19.0345 19.9998 19.0345C20.7073 19.0345 21.363 18.8164 21.9049 18.4441C22.4494 18.07 23.3434 18.07 23.8879 18.4441C24.4298 18.8164 25.0855 19.0345 25.793 19.0345C26.4718 19.0345 27.1029 18.8336 27.6317 18.4887C28.1061 18.1791 28.7901 18.1791 29.2646 18.4887C29.7934 18.8336 30.4244 19.0345 31.1033 19.0345C32.8663 19.0345 34.3139 17.6845 34.4689 15.9619C34.4867 15.764 34.415 15.5706 34.2909 15.4155L30.8123 11.0673Z" stroke="#212121" stroke-width="1.05" stroke-miterlimit="10" stroke-linecap="square"/>
</g>
</g>
</g>
</svg>
