<svg width="40" height="40" viewBox="0 0 40 40" fill="none" xmlns="http://www.w3.org/2000/svg">
<g id="Frame 427320586">
<g id="basket-search 1">
<g id="Group">
<path id="Vector" d="M30.4365 30.4366L33.5333 33.5335" stroke="#194A9B" stroke-width="0.8" stroke-miterlimit="10" stroke-linecap="round"/>
<path id="Vector_2" d="M27.4666 31.6668C29.7862 31.6668 31.6666 29.7863 31.6666 27.4667C31.6666 25.1471 29.7862 23.2667 27.4666 23.2667C25.147 23.2667 23.2666 25.1471 23.2666 27.4667C23.2666 29.7863 25.147 31.6668 27.4666 31.6668Z" stroke="#194A9B" stroke-width="0.8" stroke-miterlimit="10" stroke-linecap="square"/>
<path id="Vector_3" d="M11.6001 14.4L16.1818 6" stroke="#212121" stroke-width="0.921056" stroke-miterlimit="10" stroke-linecap="round"/>
<path id="Vector_4" d="M28.4001 14.4L23.8184 6" stroke="#212121" stroke-width="0.921056" stroke-miterlimit="10" stroke-linecap="round"/>
<path id="Vector_5" d="M33.079 14.4H6.92106C6.41237 14.4 6 14.8124 6 15.3211V18.1457C6 18.6543 6.41237 19.0667 6.92106 19.0667H33.079C33.5877 19.0667 34.0001 18.6543 34.0001 18.1457V15.3211C34.0001 14.8124 33.5877 14.4 33.079 14.4Z" stroke="#212121" stroke-width="0.921056" stroke-miterlimit="10" stroke-linecap="square"/>
<path id="Vector_6" d="M21.3998 34H10.6665C9.63561 34 8.7998 33.1642 8.7998 32.1334V19.0667" stroke="#212121" stroke-width="0.921056" stroke-miterlimit="10" stroke-linecap="round"/>
</g>
</g>
</g>
</svg>
