<svg width="40" height="40" viewBox="0 0 40 40" fill="none" xmlns="http://www.w3.org/2000/svg">
<g id="Frame 427320595">
<g id="water-sink 1">
<g id="Group">
<path id="Vector" d="M6.1333 32.8C6.1333 30.7733 9.3333 27.4667 9.3333 27.4667C9.3333 27.4667 12.5333 30.7733 12.5333 32.8C12.5333 34.8267 10.9333 36 9.3333 36C7.7333 36 6.1333 34.8267 6.1333 32.8Z" stroke="#194A9B" stroke-width="0.8" stroke-miterlimit="10" stroke-linecap="square"/>
<path id="Vector_2" d="M16.8003 4H29.6003" stroke="#212121" stroke-miterlimit="10" stroke-linecap="round"/>
<path id="Vector_3" d="M23.2002 9.33333V4" stroke="#212121" stroke-miterlimit="10" stroke-linecap="square"/>
<path id="Vector_4" d="M27.9672 11.4667C27.6522 11.4667 27.3601 11.3141 27.1485 11.0807C26.1735 10.0049 24.7676 9.33337 23.2 9.33337C21.6322 9.33337 20.2263 10.0048 19.2513 11.0807C19.0397 11.3141 18.7476 11.4667 18.4325 11.4667H14.6666C9.96142 11.4667 6.1333 15.2948 6.1333 20V22.2C6.1333 22.7523 6.58102 23.2 7.1333 23.2H11.5333C12.0856 23.2 12.5333 22.7523 12.5333 22.2V20C12.5333 18.8235 13.4901 17.8667 14.6666 17.8667H18.4325C18.7476 17.8667 19.0397 18.0193 19.2513 18.2527C20.2263 19.3287 21.6322 20 23.2 20C24.7676 20 26.1734 19.3285 27.1484 18.2527C27.36 18.0193 27.6521 17.8667 27.9671 17.8667H32.8666C33.4189 17.8667 33.8666 17.419 33.8666 16.8667V12.4667C33.8666 11.9144 33.4189 11.4667 32.8666 11.4667H27.9672Z" stroke="#212121" stroke-miterlimit="10" stroke-linecap="square"/>
</g>
</g>
</g>
</svg>
