<svg width="24" height="24" viewBox="0 0 24 24" fill="none" xmlns="http://www.w3.org/2000/svg">
<g id="comments 1" clip-path="url(#clip0_1570_3884)">
<g id="Group">
<path id="Vector" d="M22.125 7.125C22.5228 7.125 22.9044 7.28304 23.1857 7.56434C23.467 7.84564 23.625 8.22718 23.625 8.625V16.875C23.625 17.2728 23.467 17.6544 23.1857 17.9357C22.9044 18.217 22.5228 18.375 22.125 18.375H20.625V22.125L15.375 18.375H10.875" stroke="black" stroke-linecap="round" stroke-linejoin="round"/>
<path id="Vector_2" d="M17.625 1.875H2.625C2.22718 1.875 1.84564 2.03304 1.56434 2.31434C1.28304 2.59564 1.125 2.97718 1.125 3.375V13.125C1.125 13.5228 1.28304 13.9044 1.56434 14.1857C1.84564 14.467 2.22718 14.625 2.625 14.625H4.875V19.875L10.875 14.625H17.625C18.0228 14.625 18.4044 14.467 18.6857 14.1857C18.967 13.9044 19.125 13.5228 19.125 13.125V3.375C19.125 2.97718 18.967 2.59564 18.6857 2.31434C18.4044 2.03304 18.0228 1.875 17.625 1.875Z" stroke="black" stroke-linecap="round" stroke-linejoin="round"/>
</g>
</g>
<defs>
<clipPath id="clip0_1570_3884">
<rect width="24" height="24" fill="white"/>
</clipPath>
</defs>
</svg>
