<svg width="32" height="32" viewBox="0 0 32 32" xmlns="http://www.w3.org/2000/svg">
<path d="M16.0375 0.00341797C7.21685 0.00341797 0.0378418 7.1817 0.0378418 16.0031C0.0378418 24.8244 7.21612 32.0034 16.0375 32.0034C24.8588 32.0034 32.0378 24.8251 32.0378 16.0031C32.0371 7.1817 24.8588 0.00341797 16.0375 0.00341797ZM24.9907 12.9354L14.5838 23.603C14.4603 23.729 14.313 23.8291 14.1504 23.8977C13.9879 23.9662 13.8133 24.0017 13.6369 24.0021H13.6297C13.2764 24.0025 12.9374 23.8626 12.6872 23.6132L7.09449 18.0168C6.97053 17.8931 6.87219 17.7462 6.80509 17.5844C6.73799 17.4226 6.70346 17.2492 6.70346 17.074C6.70346 16.8989 6.73799 16.7255 6.80509 16.5637C6.87219 16.4019 6.97053 16.255 7.09449 16.1312C7.21822 16.0073 7.36518 15.9089 7.52696 15.8418C7.68873 15.7747 7.86215 15.7402 8.0373 15.7402C8.21244 15.7402 8.38586 15.7747 8.54764 15.8418C8.70941 15.9089 8.85637 16.0073 8.9801 16.1312L13.6231 20.7706L23.0839 11.0673C23.3314 10.8149 23.6688 10.6709 24.0222 10.6668C24.3757 10.6627 24.7163 10.7988 24.9695 11.0454C25.2221 11.2937 25.3661 11.6319 25.37 11.986C25.374 12.3402 25.2376 12.6815 24.9907 12.9354Z" />
</svg>
