<svg width="16" height="16" viewBox="0 0 16 16" xmlns="http://www.w3.org/2000/svg">
<path d="M2.31344 2.31344C2.5087 2.11818 2.82528 2.11818 3.02055 2.31344L13.6873 12.9801C13.8825 13.1754 13.8825 13.492 13.6873 13.6873C13.492 13.8825 13.1754 13.8825 12.9801 13.6873L2.31344 3.02055C2.11818 2.82528 2.11818 2.5087 2.31344 2.31344Z" />
<path d="M13.6873 2.31344C13.8825 2.5087 13.8825 2.82528 13.6873 3.02055L3.02055 13.6873C2.82528 13.8825 2.5087 13.8825 2.31344 13.6873C2.11818 13.492 2.11818 13.1754 2.31344 12.9801L12.9801 2.31344C13.1754 2.11818 13.492 2.11818 13.6873 2.31344Z" />
</svg>
