<?xml version="1.0" encoding="utf-8"?>
<!-- Generator: Adobe Illustrator 21.0.2, SVG Export Plug-In . SVG Version: 6.00 Build 0)  -->
<svg version="1.1" id="Layer_1" xmlns="http://www.w3.org/2000/svg" xmlns:xlink="http://www.w3.org/1999/xlink" x="0px" y="0px"
	 viewBox="0 0 100 100" style="enable-background:new 0 0 100 100;" xml:space="preserve">
<path d="M56.1,50L98.7,7.3c1.7-1.7,1.7-4.4,0-6.1c-1.7-1.7-4.4-1.7-6.1,0L50,43.9L7.3,1.3c-1.7-1.7-4.4-1.7-6.1,0
	c-1.7,1.7-1.7,4.4,0,6.1L43.9,50L1.3,92.7c-1.7,1.7-1.7,4.4,0,6.1c1.7,1.7,4.4,1.7,6.1,0L50,56.1l42.7,42.7c1.7,1.7,4.4,1.7,6.1,0
	c1.7-1.7,1.7-4.4,0-6.1L56.1,50z"/>
</svg>
