<?xml version="1.0" encoding="utf-8"?>
<!-- Generator: Adobe Illustrator 21.0.2, SVG Export Plug-In . SVG Version: 6.00 Build 0)  -->
<svg version="1.1" id="Layer_1" xmlns="http://www.w3.org/2000/svg" xmlns:xlink="http://www.w3.org/1999/xlink" x="0px" y="0px"
	 viewBox="0 0 100 100" style="enable-background:new 0 0 100 100;" xml:space="preserve">
<g>
	<path d="M91.5,9.2H8.5C3.8,9.2,0,13,0,17.7v13.8v50.8c0,4.7,3.8,8.5,8.5,8.5h83.1c4.7,0,8.5-3.8,8.5-8.5V31.5V17.7
		C100,13,96.2,9.2,91.5,9.2z M7.7,17.7c0-0.4,0.3-0.8,0.8-0.8h83.1c0.4,0,0.8,0.3,0.8,0.8v10H7.7V17.7z M91.5,83.1H8.5
		c-0.4,0-0.8-0.3-0.8-0.8V35.4h84.6v46.9C92.3,82.7,92,83.1,91.5,83.1z"/>
	<path d="M53,43.9c-2.1-0.4-4.1,1-4.5,3.1l-4.6,25.4c-0.4,2.1,1,4.1,3.1,4.5c0.2,0,0.5,0.1,0.7,0.1c1.8,0,3.4-1.3,3.8-3.2l4.6-25.4
		C56.5,46.3,55.1,44.3,53,43.9z"/>
	<path d="M68.6,44.7c-1.6-1.4-4.1-1.1-5.4,0.5c-1.4,1.6-1.1,4.1,0.5,5.4l10.6,8.8L63.4,70.4c-1.5,1.5-1.5,3.9,0,5.4
		c0.8,0.8,1.7,1.1,2.7,1.1c1,0,2-0.4,2.7-1.1l13.8-13.8c0.8-0.8,1.2-1.8,1.1-2.9c0-1.1-0.6-2.1-1.4-2.8L68.6,44.7z"/>
	<path d="M25.7,59.5l10.6-8.8c1.6-1.4,1.9-3.8,0.5-5.4c-1.4-1.6-3.8-1.9-5.4-0.5L17.5,56.3c-0.8,0.7-1.3,1.7-1.4,2.8
		c0,1.1,0.4,2.1,1.1,2.9l13.8,13.8c0.8,0.8,1.7,1.1,2.7,1.1s2-0.4,2.7-1.1c1.5-1.5,1.5-3.9,0-5.4L25.7,59.5z"/>
</g>
</svg>
