<?xml version="1.0" encoding="utf-8"?>
<!-- Generator: Adobe Illustrator 21.0.2, SVG Export Plug-In . SVG Version: 6.00 Build 0)  -->
<svg version="1.1" id="Layer_1" xmlns="http://www.w3.org/2000/svg" xmlns:xlink="http://www.w3.org/1999/xlink" x="0px" y="0px"
	 viewBox="0 0 100 100" style="enable-background:new 0 0 100 100;" xml:space="preserve">
<g>
	<path d="M50,0C22.4,0,0,22.4,0,50c0,27.6,22.4,50,50,50c27.6,0,50-22.4,50-50C100,22.4,77.6,0,50,0z M50,91.8
		C26.9,91.8,8.2,73.1,8.2,50C8.2,27,26.9,8.2,50,8.2C73.1,8.2,91.8,27,91.8,50C91.8,73.1,73.1,91.8,50,91.8z"/>
	<path d="M56.1,34.1c-3.4-3.4-8.9-3.4-12.3,0l-9.7,9.7c-3.4,3.4-3.4,8.9,0,12.3l9.7,9.7c1.6,1.6,3.8,2.5,6.1,2.5
		c2.3,0,4.5-0.9,6.1-2.5l9.7-9.7c1.6-1.6,2.5-3.8,2.5-6.1c0-2.3-0.9-4.5-2.5-6.1L56.1,34.1z M60.1,50.3l-9.7,9.7
		c-0.2,0.2-0.5,0.2-0.7,0l-9.7-9.7c-0.2-0.2-0.2-0.5,0-0.7l9.7-9.7c0.1-0.1,0.2-0.1,0.3-0.1s0.3,0,0.3,0.1l9.7,9.7c0,0,0,0,0,0
		c0.1,0.1,0.1,0.2,0.1,0.3C60.2,50.1,60.2,50.3,60.1,50.3z"/>
</g>
</svg>
