<svg xmlns="http://www.w3.org/2000/svg" width="100" height="100" viewBox="0 0 100 100">
	<path d="M50-0.1c-27.6,0-50,22.4-50,50s22.4,50,50,50c27.6,0,50-22.4,50-50S77.6-0.1,50-0.1z M50,5.3c20.1,0,37.1,13.3,42.7,31.6
	c-5-2.4-10.9-2.8-16.6-1.7c-6.7,1.3-13.5,4.6-18.6,9.7c-4.6,4.6-6.3,11.7-7.6,17.1l0,0c0,0.1-0.1,0.2-0.1,0.3c-0.7,2.8-1.2,5.1-2,7
	c-0.8,2-1.5,2.8-2.2,3.2c-0.4,0.2-1.3,0.3-3.1-0.7c-1.8-1-3.8-2.7-5.8-4.9c-4.1-4.5-7.8-10.4-9.2-14.7c-0.6-1.7-0.4-2.9,0.1-4.1
	c0.6-1.3,1.7-2.5,3.4-4c0.8-0.7,1.7-1.5,2.7-2.3l0,0c1-0.8,2-1.6,3-2.5c2.1-1.8,4.2-4,6-6.6c0.9-1.3,1.4-2.8,1.1-4.5
	c-0.3-1.6-1.4-2.8-2.5-3.5c-2.1-1.4-5.3-2.1-8.4-2.5c-5.5-0.7-12.4-0.5-17.9-0.2C23.3,11.8,35.9,5.3,50,5.3z M50,94.6
	c-24.7,0-44.6-20-44.6-44.6c0-8.2,2.2-15.9,6.1-22.5c0.4,0.2,0.8,0.2,1.3,0.2c5.7-0.5,13.7-0.8,19.7-0.1c3.1,0.4,5.1,1,6,1.6
	c0.1,0.1,0.1,0.1,0.2,0.1c0,0.1-0.1,0.2-0.2,0.4c-1.4,2.1-3.1,3.8-5.1,5.5c-1,0.8-1.9,1.6-2.9,2.4l0,0c-1,0.8-2,1.6-2.9,2.4
	c-1.8,1.6-3.6,3.5-4.7,5.7c-1.1,2.4-1.4,5.1-0.4,8c1.7,5.1,5.9,11.7,10.3,16.6c2.2,2.5,4.7,4.6,7.2,6c2.4,1.3,5.4,2.2,8.1,0.8
	c2.5-1.2,3.9-3.7,4.8-6c0.9-2.2,1.5-4.9,2.1-7.5c0-0.2,0.1-0.3,0.1-0.5c1.4-5.8,2.8-11.3,6.2-14.6c4.3-4.3,10-7.2,15.8-8.2
	c5.8-1.1,11.3-0.3,15.2,2.3c0.6,0.4,1.2,0.5,1.9,0.4c0.3,2.2,0.5,4.4,0.5,6.7C94.6,74.6,74.7,94.6,50,94.6z" />
</svg>