<svg width="16" height="17" viewBox="0 0 16 17" xmlns="http://www.w3.org/2000/svg">
<path d="M5.18589 4.83671C4.23423 4.72124 2.94404 4.76828 2.03881 4.85057C1.80309 4.87199 1.59463 4.69828 1.5732 4.46255C1.55177 4.22683 1.72549 4.01837 1.96121 3.99694C2.88931 3.91257 4.24912 3.85961 5.28913 3.98581C5.7919 4.04681 6.29899 4.15749 6.63222 4.38277C6.80881 4.50214 6.98177 4.68477 7.03242 4.94862C7.08289 5.21153 6.993 5.45688 6.8566 5.66148C6.5769 6.08103 6.23316 6.422 5.89997 6.71456C5.73597 6.85856 5.57076 6.99401 5.41649 7.1205L5.40943 7.12628C5.25095 7.25622 5.10536 7.37576 4.97224 7.49409C4.70115 7.73507 4.5211 7.93795 4.42661 8.13805C4.34218 8.31683 4.31552 8.51507 4.40659 8.78828C4.6329 9.46721 5.22042 10.4164 5.87843 11.1342C6.20644 11.492 6.53027 11.7682 6.81044 11.9245C7.1054 12.0892 7.25126 12.069 7.30835 12.0404C7.41127 11.989 7.53135 11.8526 7.65582 11.5333C7.77298 11.2328 7.8628 10.8564 7.96814 10.415C7.97212 10.3983 7.97611 10.3816 7.98013 10.3648L7.98069 10.3624C8.18965 9.48733 8.45918 8.35854 9.19696 7.62076C10.0116 6.80615 11.0912 6.26754 12.171 6.06507C13.2472 5.8633 14.3695 5.98837 15.2377 6.56721C15.4347 6.69851 15.4879 6.96459 15.3566 7.16153C15.2253 7.35847 14.9592 7.41169 14.7623 7.2804C14.1305 6.85924 13.2529 6.73431 12.329 6.90754C11.4088 7.08007 10.4884 7.54146 9.80306 8.22685C9.26675 8.76315 9.03611 9.63298 8.81383 10.5639C8.80773 10.5894 8.80163 10.615 8.79552 10.6407C8.69628 11.0571 8.59383 11.4871 8.45442 11.8447C8.30932 12.2168 8.08875 12.6086 7.69167 12.8071C7.24876 13.0286 6.76962 12.8834 6.3927 12.673C6.001 12.4544 5.60608 12.1055 5.24659 11.7134C4.5296 10.9312 3.86712 9.88037 3.59343 9.05933L4.00001 8.9238L3.59343 9.05933C3.4345 8.58254 3.47034 8.15577 3.65154 7.77205C3.82267 7.40964 4.11137 7.1125 4.40278 6.85346C4.55091 6.72179 4.71001 6.59133 4.86598 6.46345L4.86832 6.46153C5.02569 6.3325 5.18138 6.20485 5.33442 6.07047C5.64186 5.80052 5.92312 5.51648 6.14342 5.18603C6.16477 5.154 6.17633 5.13091 6.18254 5.11572C6.17548 5.10964 6.16565 5.10198 6.15217 5.09287C6.00311 4.9921 5.67895 4.89654 5.18589 4.83671ZM6.19878 5.13254C6.19872 5.13255 6.19823 5.13192 6.19749 5.13062C6.19847 5.13188 6.19884 5.13253 6.19878 5.13254ZM6.18922 5.09495C6.18929 5.09352 6.18942 5.09278 6.18947 5.09276Z"/>
<path d="M8 1.28097C4.05511 1.28097 0.857143 4.47894 0.857143 8.42383C0.857143 12.3687 4.05511 15.5667 8 15.5667C11.9449 15.5667 15.1429 12.3687 15.1429 8.42383C15.1429 4.47894 11.9449 1.28097 8 1.28097ZM0 8.42383C0 4.00555 3.58172 0.423828 8 0.423828C12.4183 0.423828 16 4.00555 16 8.42383C16 12.8421 12.4183 16.4238 8 16.4238C3.58172 16.4238 0 12.8421 0 8.42383Z"/>
</svg>
