<?xml version="1.0" encoding="utf-8"?>
<!-- Generator: Adobe Illustrator 21.0.2, SVG Export Plug-In . SVG Version: 6.00 Build 0)  -->
<svg version="1.1" id="Layer_1" xmlns="http://www.w3.org/2000/svg" xmlns:xlink="http://www.w3.org/1999/xlink" x="0px" y="0px"
	 viewBox="0 0 100 100" style="enable-background:new 0 0 100 100;" xml:space="preserve">
<path d="M96.2,15.4H65.4H34.6H3.8c-2.1,0-3.8,1.7-3.8,3.8V50v30.8c0,2.1,1.7,3.8,3.8,3.8h30.8c2.1,0,3.8-1.7,3.8-3.8V53.8h23.1v26.9
	c0,2.1,1.7,3.8,3.8,3.8h30.8c2.1,0,3.8-1.7,3.8-3.8V50V19.2C100,17.1,98.3,15.4,96.2,15.4z M92.3,46.2H69.2V23.1h23.1V46.2z
	 M7.7,23.1h23.1v23.1H7.7V23.1z M30.8,76.9H7.7V53.8h23.1V76.9z M38.5,23.1h23.1v23.1H38.5V23.1z M92.3,76.9H69.2V53.8h23.1V76.9z"
	/>
</svg>
