<svg xmlns="http://www.w3.org/2000/svg" width="100" height="100" viewBox="0 0 100 100">
	<path d="M50,100c-0.4,0-0.8-0.1-1.2-0.2C23,91.2,5.6,67.1,5.6,39.9V15.6c0-1.7,1.1-3.2,2.7-3.7L49,0.2
	c0.7-0.2,1.4-0.2,2.1,0L91.6,12c1.6,0.5,2.7,2,2.7,3.7v24.3c0,27.2-17.3,51.3-43.2,59.9C50.8,99.9,50.4,100,50,100z M13.2,18.5v21.4
	C13.2,63.4,28,84.3,50,92.2c22-7.9,36.8-28.7,36.8-52.2V18.5L50,7.8L13.2,18.5z" />
	<path d="M45.5,66.2c-1,0-1.9-0.4-2.7-1.1L27,49.3c-1.5-1.5-1.5-3.9,0-5.4c1.5-1.5,3.9-1.5,5.4,0L45.5,57l24.4-24.4
	c1.5-1.5,3.9-1.5,5.4,0c1.5,1.5,1.5,3.9,0,5.4l-27,27C47.4,65.8,46.5,66.2,45.5,66.2z" />
</svg>