<svg xmlns="http://www.w3.org/2000/svg" width="100" height="100" viewBox="0 0 100 100">
	<path d="M98.2,14.5C95.6,8.2,91.3,7,89,6.8c-8.8-0.6-19.1,10.1-34.7,36c-1.6,2.6-3,5-4.3,7.1c-1.3-2.1-2.7-4.5-4.3-7.1
	C30.2,16.9,19.8,6.1,11,6.8C8.7,7,4.3,8.2,1.8,14.5c-3.6,8.6-0.9,25.5,1,34.9C5.7,63.4,10.3,77.4,14.7,85c2.9,5.1,5.8,7.6,9.1,8.1
	c0.5,0.1,1.1,0.1,1.6,0.1c9.7,0,19-12.7,24.7-22.4c5.7,9.7,14.9,22.4,24.7,22.4c0.5,0,1.1,0,1.6-0.1c3.3-0.5,6.2-3.1,9.1-8.1
	c4.3-7.6,8.9-21.6,11.9-35.7C99.1,40,101.8,23.1,98.2,14.5z M85.4,54.6c-3.7,14.9-7.8,23.4-9.9,26.8c-0.7,1-2,1.3-3.1,0.7
	c-4.1-2.5-10.8-10.8-16.5-22c1.5-2.6,4.2-7,7.2-12.1c13.6-22.5,20.7-28.7,23.6-30.3c0.7-0.4,1.5-0.2,1.9,0.5
	c0,0.1,0.1,0.1,0.1,0.2l0,0C90.8,23.5,89.4,38.4,85.4,54.6z M44.1,60.1c-2.1,4-4.4,7.8-7,11.6c-4.8,7-8.1,9.6-10,10.6
	c-0.9,0.5-1.9,0.2-2.5-0.6c-2.2-3.3-6.3-11.8-10.1-27c-4.1-16.2-5.4-31.1-3.3-36.2l0,0c0.3-0.7,1.1-1.1,1.9-0.8
	c0.1,0,0.1,0.1,0.2,0.1c2.9,1.7,10,7.9,23.6,30.3C39.9,53.1,42.6,57.5,44.1,60.1z" />
</svg>