<svg width="16" height="16" viewBox="0 0 16 16" xmlns="http://www.w3.org/2000/svg">
  <path d="M13.816 6.79551C12.6676 6.79551 11.5506 6.42227 10.6318 5.73184V10.5484C10.6318 13.008 8.7369 15 6.39901 15C4.06112 15 2.1662 13.008 2.1662 10.5484C2.1662 8.08887 4.06112 6.09687 6.39901 6.09687C6.6328 6.09687 6.85975 6.11738 7.08124 6.15566V8.70684C6.86932 8.62344 6.64374 8.58105 6.41679 8.58105C5.37362 8.58105 4.52733 9.46973 4.52733 10.5676C4.52733 11.6641 5.37362 12.5541 6.41679 12.5541C7.45858 12.5541 8.30487 11.6641 8.30487 10.5676V1H10.666C10.666 2.83887 12.0838 4.3291 13.8324 4.3291V6.79414L13.816 6.79551" />
</svg>