<svg width="16" height="16" viewBox="0 0 16 16" fill="none" xmlns="http://www.w3.org/2000/svg">
<g id="ic_wechat">
<g id="Group 184">
<path id="Vector" d="M10.734 5.19976C10.904 5.19976 11.072 5.21276 11.238 5.23176C10.785 3.12076 8.52801 1.55176 5.95201 1.55176C3.07201 1.55176 0.713013 3.51476 0.713013 6.00776C0.713013 7.44676 1.49801 8.62776 2.81001 9.54476L2.28601 11.1208L4.11701 10.2028C4.77301 10.3328 5.29901 10.4658 5.95201 10.4658C6.11701 10.4658 6.28001 10.4578 6.44201 10.4458C6.33586 10.089 6.28131 9.71894 6.28001 9.34676C6.28001 7.05776 8.24501 5.20076 10.734 5.20076V5.19976ZM7.91701 3.77976C8.31201 3.77976 8.57301 4.03976 8.57301 4.43376C8.57301 4.82676 8.31201 5.08976 7.91701 5.08976C7.52501 5.08976 7.13001 4.82676 7.13001 4.43376C7.13001 4.03976 7.52501 3.77976 7.91701 3.77976V3.77976ZM4.25001 5.08976C3.85801 5.08976 3.46201 4.82676 3.46201 4.43376C3.46201 4.03976 3.85801 3.77976 4.25001 3.77976C4.64301 3.77976 4.90401 4.03976 4.90401 4.43376C4.90401 4.82676 4.64401 5.08976 4.25001 5.08976Z" fill="white"/>
<path id="Vector_2" d="M15.516 9.28393C15.516 7.18893 13.42 5.48193 11.066 5.48193C8.57298 5.48193 6.60999 7.18893 6.60999 9.28393C6.60999 11.3819 8.57298 13.0859 11.066 13.0859C11.587 13.0859 12.114 12.9549 12.638 12.8229L14.075 13.6099L13.681 12.3009C14.733 11.5109 15.516 10.4659 15.516 9.28393V9.28393ZM9.61998 8.62993C9.35998 8.62993 9.09598 8.36993 9.09598 8.10493C9.09598 7.84493 9.35898 7.58093 9.61998 7.58093C10.016 7.58093 10.276 7.84393 10.276 8.10493C10.276 8.36993 10.016 8.62993 9.61998 8.62993V8.62993ZM12.502 8.62993C12.242 8.62993 11.982 8.36993 11.982 8.10493C11.982 7.84493 12.242 7.58093 12.502 7.58093C12.895 7.58093 13.157 7.84393 13.157 8.10493C13.157 8.36993 12.895 8.62993 12.502 8.62993Z" fill="white"/>
</g>
</g>
</svg>
