<?xml version="1.0" encoding="utf-8"?>
<!-- Generator: Adobe Illustrator 21.0.2, SVG Export Plug-In . SVG Version: 6.00 Build 0)  -->
<svg version="1.1" id="Layer_1" xmlns="http://www.w3.org/2000/svg" xmlns:xlink="http://www.w3.org/1999/xlink" x="0px" y="0px"
	 viewBox="0 0 16 16" style="enable-background:new 0 0 16 16;" xml:space="preserve">
<path d="M8,0C6.4,0,4.9,0.5,3.6,1.3C2.2,2.2,1.2,3.5,0.6,4.9C0,6.4-0.2,8,0.2,9.6c0.3,1.6,1.1,3,2.2,4.1c1.1,1.1,2.5,1.9,4.1,2.2
	c1.6,0.3,3.2,0.2,4.6-0.5c1.5-0.6,2.7-1.6,3.6-2.9C15.5,11.1,16,9.6,16,8c0-2.1-0.8-4.2-2.3-5.7C12.2,0.8,10.1,0,8,0L8,0z M12,7.2
	c-0.3,0.5-0.8,0.9-1.4,1c-0.1,0-0.3,0.1-0.4,0.1c-0.1,0-0.2,0-0.3-0.1C9.9,8.1,9.8,7.9,9.8,7.8c0-0.1,0-0.2,0.1-0.3
	c0.1-0.1,0.2-0.1,0.3-0.1c0,0,0.1,0,0.1,0C10.7,7.3,11,7,11.2,6.7c0.1-0.2,0.2-0.4,0.2-0.6c0-0.7-0.7-1.3-1.5-1.3
	C9.7,4.8,9.4,4.9,9.1,5C8.9,5.1,8.8,5.3,8.6,5.5C8.5,5.6,8.5,5.9,8.5,6.1v3.8c0,0.4-0.1,0.8-0.3,1.1c-0.2,0.3-0.5,0.6-0.8,0.8
	c-0.4,0.2-0.8,0.3-1.2,0.3c-1.3,0-2.4-1-2.4-2.2c0-0.4,0.1-0.8,0.3-1.1c0.3-0.5,0.8-0.9,1.4-1c0.1,0,0.3-0.1,0.4-0.1
	c0.1,0,0.1,0,0.2,0C6,7.8,6,7.8,6.1,7.8c0,0,0.1,0.1,0.1,0.1c0,0.1,0,0.1,0,0.2s0,0.1,0,0.2c0,0.1-0.1,0.1-0.1,0.1
	c0,0-0.1,0.1-0.1,0.1s-0.1,0-0.2,0c0,0-0.1,0-0.1,0C5.3,8.7,5,9,4.8,9.3C4.6,9.5,4.6,9.7,4.6,9.9c0,0.7,0.7,1.3,1.5,1.3
	c0.3,0,0.6-0.1,0.8-0.2c0.2-0.1,0.4-0.3,0.5-0.5c0.1-0.2,0.2-0.4,0.2-0.6V6.1c0-0.4,0.1-0.8,0.3-1.1c0.2-0.3,0.5-0.6,0.8-0.8
	C9.1,4,9.5,3.9,9.9,3.9c1.3,0,2.4,1,2.4,2.2C12.3,6.5,12.2,6.9,12,7.2L12,7.2z"/>
</svg>
