<svg width="16" height="16" viewBox="0 0 16 16" fill="none" xmlns="http://www.w3.org/2000/svg">
<g id="ic_xiaochengxu">
<g id="Group 183">
<path id="Vector" d="M7.99976 1C6.61529 1 5.26191 1.41054 4.11077 2.17971C2.95962 2.94888 2.06242 4.04213 1.5326 5.32122C1.00279 6.6003 0.864166 8.00777 1.13426 9.36563C1.40436 10.7235 2.07104 11.9708 3.05001 12.9497C4.02898 13.9287 5.27626 14.5954 6.63413 14.8655C7.99199 15.1356 9.39946 14.997 10.6785 14.4672C11.9576 13.9373 13.0509 13.0401 13.82 11.889C14.5892 10.7378 14.9998 9.38447 14.9998 8C14.9998 6.14348 14.2623 4.36301 12.9495 3.05025C11.6368 1.7375 9.85627 1 7.99976 1V1ZM11.5096 7.29161C11.2368 7.72897 10.8111 8.04931 10.3154 8.19039C10.2073 8.22567 10.0945 8.24455 9.98076 8.24639C9.87571 8.24578 9.77518 8.20362 9.70112 8.12912C9.62706 8.05462 9.58549 7.95384 9.58549 7.8488C9.58549 7.74375 9.62706 7.64297 9.70112 7.56847C9.77518 7.49397 9.87571 7.45181 9.98076 7.4512C10.011 7.45189 10.0411 7.44616 10.069 7.43439C10.3874 7.35526 10.6619 7.15413 10.8334 6.87439C10.9331 6.71135 10.9855 6.52374 10.9846 6.33261C10.9846 5.704 10.4036 5.186 9.69517 5.186C9.45002 5.18652 9.20907 5.24964 8.99517 5.36939C8.81884 5.46225 8.67048 5.60046 8.5654 5.76978C8.46031 5.9391 8.40231 6.13339 8.39736 6.33261V9.67161C8.39389 10.0098 8.29986 10.3409 8.12504 10.6305C7.95023 10.92 7.70103 11.1574 7.40336 11.318C7.07058 11.5051 6.69453 11.6017 6.31276 11.598C5.15915 11.598 4.21276 10.73 4.21276 9.6562C4.2148 9.31935 4.30818 8.98936 4.48296 8.70139C4.75574 8.26403 5.18137 7.94369 5.67715 7.80261C5.78539 7.76785 5.8981 7.74898 6.01176 7.74661C6.06417 7.7463 6.11612 7.75636 6.16463 7.7762C6.21314 7.79604 6.25725 7.82528 6.29441 7.86223C6.33158 7.89918 6.36108 7.94312 6.38121 7.99151C6.40133 8.0399 6.4117 8.09179 6.4117 8.1442C6.4117 8.19661 6.40133 8.24851 6.38121 8.2969C6.36108 8.34529 6.33158 8.38923 6.29441 8.42618C6.25725 8.46313 6.21314 8.49237 6.16463 8.51221C6.11612 8.53205 6.06417 8.54211 6.01176 8.5418C5.9815 8.54111 5.95144 8.54684 5.92356 8.55861C5.60789 8.64351 5.33529 8.84322 5.15917 9.11861C5.05942 9.28165 5.00706 9.46926 5.00796 9.66039C5.00796 10.289 5.58896 10.807 6.30576 10.807C6.5509 10.8065 6.79185 10.7434 7.00576 10.6236C7.18182 10.5306 7.32989 10.3923 7.43472 10.223C7.53955 10.0537 7.59735 9.85947 7.60215 9.66039V6.33682C7.60596 5.99832 7.70027 5.66702 7.8753 5.37726C8.05033 5.08751 8.29971 4.84988 8.59756 4.68901C8.92433 4.4932 9.29883 4.39146 9.67976 4.39501C10.8334 4.39501 11.7798 5.26301 11.7798 6.33682C11.7777 6.67367 11.6843 7.00365 11.5096 7.29162V7.29161Z" fill="white"/>
</g>
</g>
</svg>
